<?xml version="1.0" standalone="no"?>
<!DOCTYPE svg PUBLIC "-//W3C//DTD SVG 20010904//EN"
 "http://www.w3.org/TR/2001/REC-SVG-20010904/DTD/svg10.dtd">
<svg version="1.0" xmlns="http://www.w3.org/2000/svg"
 width="146.000000pt" height="146.000000pt" viewBox="0 0 146.000000 146.000000"
 preserveAspectRatio="xMidYMid meet">
<metadata>
Created by potrace 1.11, written by Peter Selinger 2001-2013
</metadata>
<g transform="translate(0.000000,146.000000) scale(0.100000,-0.100000)"
fill="#000000" stroke="none">
<path d="M475 1315 c-137 -80 -254 -146 -260 -148 -6 -2 -10 -46 -10 -103 l0
-99 -61 -45 -61 -45 0 -167 0 -167 43 30 c24 16 168 120 320 230 151 110 279
201 283 202 5 1 102 -65 216 -148 114 -82 217 -157 229 -165 11 -8 57 -41 100
-72 44 -32 82 -58 86 -58 6 0 7 327 0 332 -3 2 -30 23 -62 45 l-56 42 0 92 c0
50 -4 95 -9 99 -11 11 -496 290 -503 290 -3 0 -117 -66 -255 -145z"/>
<path d="M554 818 c-99 -71 -190 -136 -204 -146 -14 -9 -52 -37 -85 -62 l-60
-45 0 -132 c0 -73 1 -133 3 -133 4 0 276 195 436 312 44 32 83 58 87 58 4 0
119 -81 255 -179 137 -99 250 -178 252 -176 2 1 3 60 4 130 0 112 -2 129 -18
145 -11 9 -125 94 -255 187 l-236 170 -179 -129z"/>
<path d="M715 468 c-17 -58 -19 -82 -6 -74 5 3 14 25 20 50 6 24 13 51 17 60
3 9 1 16 -5 16 -5 0 -17 -23 -26 -52z"/>
<path d="M623 470 c-24 -10 -43 -21 -43 -24 0 -6 75 -46 85 -46 17 0 1 22 -22
31 l-28 11 28 14 c15 8 27 19 27 24 0 12 3 13 -47 -10z"/>
<path d="M770 480 c0 -5 14 -16 32 -23 l32 -13 -32 -13 c-27 -11 -44 -31 -27
-31 10 0 85 40 85 45 0 5 -75 45 -85 45 -3 0 -5 -4 -5 -10z"/>
<path d="M120 130 c0 -56 3 -70 15 -70 9 0 15 9 15 25 0 14 4 25 8 25 5 0 15
-11 22 -25 7 -14 22 -25 32 -25 17 0 16 4 -7 40 l-25 40 20 22 c24 26 26 38 6
38 -8 0 -24 -12 -35 -27 l-20 -28 -1 28 c0 17 -5 27 -15 27 -12 0 -15 -14 -15
-70z"/>
<path d="M270 180 c-39 -39 -12 -120 40 -120 29 0 60 36 60 70 0 34 -31 70
-60 70 -11 0 -29 -9 -40 -20z m70 -48 c0 -37 -17 -54 -42 -41 -20 11 -23 40
-8 70 16 28 50 8 50 -29z"/>
<path d="M430 180 c-28 -28 -27 -84 2 -104 30 -21 54 -20 78 4 39 39 12 120
-40 120 -11 0 -29 -9 -40 -20z m70 -46 c0 -32 -28 -58 -46 -43 -20 16 -18 66
3 78 23 12 43 -4 43 -35z"/>
<path d="M570 130 l0 -71 41 3 c105 6 105 138 -1 138 l-40 0 0 -70z m78 35 c2
-1 5 -14 8 -28 3 -19 -2 -30 -18 -41 -34 -24 -38 -20 -38 35 0 48 1 50 23 43
12 -3 23 -8 25 -9z"/>
<path d="M730 130 c0 -56 3 -70 15 -70 12 0 15 14 15 70 0 56 -3 70 -15 70
-12 0 -15 -14 -15 -70z"/>
<path d="M809 183 c0 -10 -2 -42 -5 -70 -3 -42 -1 -53 11 -53 10 0 15 11 15
35 0 19 5 35 10 35 6 0 10 -9 10 -19 0 -29 11 -51 25 -51 10 0 22 29 29 72 1
3 4 10 9 14 4 4 7 -14 7 -39 0 -36 4 -47 16 -47 13 0 15 10 10 62 -3 35 -5 66
-6 71 0 4 -9 7 -20 7 -15 0 -22 -11 -31 -47 l-12 -46 -15 46 c-11 34 -20 47
-33 47 -11 0 -19 -7 -20 -17z"/>
<path d="M1016 188 c-3 -7 -11 -35 -20 -62 -20 -61 -20 -66 -2 -66 8 0 18 9
21 20 3 11 13 20 20 20 8 0 19 -9 25 -20 13 -24 45 -28 36 -5 -3 9 -13 40 -22
70 -12 43 -20 55 -35 55 -11 0 -21 -6 -23 -12z m34 -55 c0 -7 -6 -13 -14 -13
-9 0 -12 8 -8 26 3 19 7 22 13 12 5 -7 9 -19 9 -25z"/>
<path d="M1160 146 c0 -46 -3 -56 -20 -61 -28 -9 -25 -25 5 -25 32 0 45 26 45
89 0 39 -4 51 -15 51 -11 0 -15 -13 -15 -54z"/>
<path d="M1265 188 c-6 -21 -35 -121 -35 -125 0 -2 6 -3 14 -3 8 0 17 9 21 19
7 24 42 23 48 -1 3 -10 12 -18 20 -18 14 0 13 9 -4 67 -10 38 -19 69 -19 70 0
10 -41 1 -45 -9z m35 -55 c0 -7 -6 -13 -14 -13 -9 0 -12 8 -8 26 3 19 7 22 13
12 5 -7 9 -19 9 -25z"/>
</g>
</svg>
